<svg width="40" height="40" viewBox="0 0 40 40" fill="none" xmlns="http://www.w3.org/2000/svg">
<rect width="40" height="40" rx="8" fill="#F2F6FF"/>
<path d="M15.8333 24.9998H24.1667V23.3332H15.8333V24.9998Z" fill="#01367C"/>
<path d="M24.1667 21.6665H15.8333V19.9998H24.1667V21.6665Z" fill="#01367C"/>
<path d="M15.8333 18.3332H19.1667V16.6665H15.8333V18.3332Z" fill="#01367C"/>
<path fill-rule="evenodd" clip-rule="evenodd" d="M15 11.6665C13.6193 11.6665 12.5 12.7858 12.5 14.1665V25.8332C12.5 27.2139 13.6193 28.3332 15 28.3332H25C26.3807 28.3332 27.5 27.2139 27.5 25.8332V17.4998C27.5 14.2782 24.8883 11.6665 21.6667 11.6665H15ZM15 13.3332H20.8333V17.4998H25.8333V25.8332C25.8333 26.2934 25.4602 26.6665 25 26.6665H15C14.5398 26.6665 14.1667 26.2934 14.1667 25.8332V14.1665C14.1667 13.7063 14.5398 13.3332 15 13.3332ZM22.5 13.4165C23.8428 13.6891 24.9511 14.6074 25.4866 15.8332H22.5V13.4165Z" fill="#01367C"/>
</svg>
