<svg width="16" height="13" viewBox="0 0 16 13" fill="none" xmlns="http://www.w3.org/2000/svg">
<path fill-rule="evenodd" clip-rule="evenodd" d="M0.666016 2.5C0.666016 1.32565 1.66602 0.5 2.66602 0.5H13.1327C14.3327 0.5 15.3327 1.5 15.3327 2.75V10.25C15.3327 11.375 14.2327 12.5 13.1327 12.5H2.66602C1.66602 12.5 0.666016 11.5 0.666016 10.5V1.32565V2.5ZM1.99935 2.5488V9.16667C1.99935 10.2712 2.89478 11.1667 3.99935 11.1667H11.9993C13.1039 11.1667 13.9993 10.2712 13.9993 9.16667V2.5L9.72797 7.28789C8.77336 8.26937 7.22562 8.26937 6.27101 7.28789L1.99935 2.5488ZM3.33268 1.83333H12.666L8.57565 6.10315C8.25744 6.43031 7.74153 6.43031 7.42333 6.10315L3.33268 1.83333Z" fill="black"/>
</svg>
