<svg width="14" height="15" viewBox="0 0 14 15" fill="none" xmlns="http://www.w3.org/2000/svg">
<path d="M13.6673 7.50001C13.6673 6.62452 13.4949 5.75766 13.1599 4.94874C12.8248 4.13998 12.3338 3.40496 11.7147 2.78598C11.0956 2.16684 10.3607 1.67579 9.55188 1.34083C8.74304 1.00571 7.87614 0.833344 7.00065 0.833344V2.16668C7.70103 2.16668 8.39455 2.3047 9.04163 2.5726C9.6887 2.84067 10.2766 3.23357 10.7719 3.72885C11.2671 4.22397 11.66 4.81202 11.928 5.45899C12.196 6.10613 12.334 6.79965 12.334 7.50001H13.6673Z" fill="black"/>
<path d="M0.333984 6.16668V2.83334C0.333984 2.46518 0.632467 2.16668 1.00065 2.16668H4.33398C4.70217 2.16668 5.00065 2.46518 5.00065 2.83334V5.50001C5.00065 5.86817 4.70217 6.16668 4.33398 6.16668H3.00065C3.00065 9.11215 5.38847 11.5 8.33398 11.5V10.1667C8.33398 9.79851 8.63247 9.50001 9.00065 9.50001H11.6673C12.0355 9.50001 12.334 9.79851 12.334 10.1667V13.5C12.334 13.8682 12.0355 14.1667 11.6673 14.1667H8.33398C3.91571 14.1667 0.333984 10.585 0.333984 6.16668Z" fill="black"/>
<path d="M10.6962 5.96925C10.8972 6.4546 11.0007 6.97478 11.0007 7.50001H9.80066C9.80066 7.13233 9.72823 6.76824 9.5875 6.42856C9.4468 6.08871 9.24056 5.78012 8.98055 5.52019C8.72054 5.2601 8.41189 5.05388 8.07216 4.9131C7.73246 4.77247 7.36835 4.70004 7.00065 4.70004V3.50001C7.52594 3.50001 8.04608 3.60353 8.53139 3.80453C9.01668 4.00554 9.45764 4.30014 9.82908 4.67156C10.2005 5.04298 10.4952 5.4839 10.6962 5.96925Z" fill="black"/>
</svg>
