<svg width="16" height="17" viewBox="0 0 16 17" fill="none" xmlns="http://www.w3.org/2000/svg">
<path fill-rule="evenodd" clip-rule="evenodd" d="M3.83333 3V2.16667C3.83333 1.24619 4.57953 0.5 5.5 0.5H10.5C11.4205 0.5 12.1667 1.24619 12.1667 2.16667V3H14.6667C15.1269 3 15.5 3.3731 15.5 3.83333C15.5 4.29357 15.1269 4.66667 14.6667 4.66667H13.8333V13.8333C13.8333 15.214 12.714 16.3333 11.3333 16.3333H4.66667C3.28595 16.3333 2.16667 15.214 2.16667 13.8333V4.66667H1.33333C0.873096 4.66667 0.5 4.29357 0.5 3.83333C0.5 3.3731 0.873096 3 1.33333 3H3.83333ZM5.5 2.16667H10.5V3H5.5V2.16667ZM3.83333 4.66667H12.1667V13.8333C12.1667 14.2936 11.7936 14.6667 11.3333 14.6667H4.66667C4.20643 14.6667 3.83333 14.2936 3.83333 13.8333V4.66667Z" fill="#DD4547"/>
</svg>
